<mxfile host="app.diagrams.net" modified="2023-06-22T17:34:19.252Z" agent="Mozilla/5.0 (X11; Linux x86_64; rv:108.0) Gecko/20100101 Firefox/108.0" version="21.5.0" etag="TC4y8dV_vePBSWuOhn2g" type="github">
  <diagram name="PÃ¡gina-1" id="1ZKMJbn1vYdcRcHwh9FU">
    <mxGraphModel>
      <root>
        <mxCell id="0" />
        <mxCell id="1" parent="0" />
      </root>
    </mxGraphModel>
  </diagram>
</mxfile>
